<?xml version="1.0" encoding="utf-8"?>
<svg xmlns="http://www.w3.org/2000/svg">
    <defs>
        <symbol id="twitter" viewBox="0 0 24 24" fill="none" stroke="currentColor" stroke-linecap="round" stroke-linejoin="round" stroke-width="2">
            <path d="M4 4l11.733 16h4.267l-11.733 -16z"></path> <path d="M4 20l6.768 -6.768m2.46 -2.46l6.772 -6.772"></path>
        </symbol>
        <symbol id="github" viewBox="0 0 24 24" fill="none" stroke="currentColor" stroke-linecap="round" stroke-linejoin="round" stroke-width="2">
            <path d="M9 19c-4.3 1.4 -4.3 -2.5 -6 -3m12 5v-3.5c0 -1 .1 -1.4 -.5 -2c2.8 -.3 5.5 -1.4 5.5 -6a4.6 4.6 0 0 0 -1.3 -3.2a4.2 4.2 0 0 0 -.1 -3.2s-1.1 -.3 -3.5 1.3a12.3 12.3 0 0 0 -6.2 0c-2.4 -1.6 -3.5 -1.3 -3.5 -1.3a4.2 4.2 0 0 0 -.1 3.2a4.6 4.6 0 0 0 -1.3 3.2c0 4.6 2.7 5.7 5.5 6c-.6 .6 -.6 1.2 -.5 2v3.5"></path>
        </symbol>
        <symbol id="linkedin" viewBox="0 0 24 24" fill="none" stroke="currentColor" stroke-linecap="round" stroke-linejoin="round" stroke-width="2">
            <path d="M4 4m0 2a2 2 0 0 1 2 -2h12a2 2 0 0 1 2 2v12a2 2 0 0 1 -2 2h-12a2 2 0 0 1 -2 -2z" />
            <path d="M8 11l0 5" />
            <path d="M8 8l0 .01" />
            <path d="M12 16l0 -5" />
            <path d="M16 16v-3a2 2 0 0 0 -4 0" />
        </symbol>
        <symbol id="code" viewBox="0 0 24 24" fill="none" stroke="currentColor" stroke-linecap="round" stroke-linejoin="round" stroke-width="2">
            <path d="M7 8l-4 4l4 4" />
            <path d="M17 8l4 4l-4 4" />
            <path d="M14 4l-4 16" />
        </symbol>
        <symbol id="world" viewBox="0 0 24 24" fill="none" stroke="currentColor" stroke-linecap="round" stroke-linejoin="round" stroke-width="2">
            <path d="M3 12a9 9 0 1 0 18 0a9 9 0 0 0 -18 0" />
            <path d="M3.6 9h16.8" />
            <path d="M3.6 15h16.8" />
            <path d="M11.5 3a17 17 0 0 0 0 18" />
            <path d="M12.5 3a17 17 0 0 1 0 18" />
        </symbol>
        <symbol id="stack" viewBox="0 0 24 24" fill="none" stroke="currentColor" stroke-linecap="round" stroke-linejoin="round" stroke-width="2">
            <path d="M12 4l-8 4l8 4l8 -4l-8 -4" />
            <path d="M4 12l8 4l8 -4" />
            <path d="M4 16l8 4l8 -4" />
        </symbol>
        <symbol id="clock" viewBox="0 0 24 24" fill="none" stroke="currentColor" stroke-linecap="round" stroke-linejoin="round" stroke-width="3">
            <path d="M12 12m-9 0a9 9 0 1 0 18 0a9 9 0 1 0 -18 0" />
            <path d="M12 12h3.5" />
            <path d="M12 7v5" />
        </symbol>
    </defs>
</svg>
